<svg xmlns="http://www.w3.org/2000/svg" width="42" height="48" fill="none"><path fill="#1358DB" fill-rule="evenodd" d="M1.25 12.603v22.882L20.955 46.67 40.75 35.483V12.605L20.955 1.331zM20.583.1.38 11.657A.75.75 0 0 0 0 12.31v23.467c0 .272.146.523.381.656l20.204 11.469c.229.13.508.13.737 0l20.296-11.469a.75.75 0 0 0 .382-.657V12.312a.75.75 0 0 0-.38-.655L21.324.098a.75.75 0 0 0-.74 0" clip-rule="evenodd"/><path fill="#1358DB" d="M2.5 13.389 20.959 2.901 39.5 13.389v21.302L20.959 45.097 2.5 34.691z"/><g fill="#fff"><path d="M32.578 20.726a1.9 1.9 0 0 0-.88-.665 2.8 2.8 0 0 0-1.059-.218q-.662 0-1.204.242a2.9 2.9 0 0 0-.939.665 3.1 3.1 0 0 0-.602.992q-.205.568-.205 1.234 0 .702.205 1.282.204.58.578 1.004.386.411.915.641.53.23 1.192.23.686 0 1.216-.266.53-.279.855-.726l1.216.859a3.96 3.96 0 0 1-1.385 1.113q-.819.387-1.914.387-.999 0-1.842-.327a4.4 4.4 0 0 1-1.433-.931 4.3 4.3 0 0 1-.94-1.428 4.9 4.9 0 0 1-.336-1.838q0-1.029.349-1.851.36-.834.975-1.415a4.4 4.4 0 0 1 1.469-.896 5.2 5.2 0 0 1 1.83-.314q.41 0 .855.085.446.072.855.242.41.156.77.399.362.242.614.58zM15.348 18.718h2.372l2.215 6.084h.036l2.192-6.084h2.384v8.564H23.04V20.4h-.024l-2.588 6.883h-1.06L16.817 20.4h-.024v6.883h-1.445zM8 18.718h2.781q.735 0 1.325.133t1.011.435.65.774q.23.472.23 1.138-.001.713-.266 1.197a2.2 2.2 0 0 1-.722.787 3.1 3.1 0 0 1-1.048.423 6 6 0 0 1-1.276.133H9.517v3.544H8zm2.577 3.738q.372 0 .71-.049.337-.06.602-.193a1.15 1.15 0 0 0 .422-.387q.156-.242.156-.63 0-.375-.157-.604a1.06 1.06 0 0 0-.42-.375 1.6 1.6 0 0 0-.59-.17 4.6 4.6 0 0 0-.675-.048H9.517v2.456z"/></g><path fill="#fff" d="M20.86 36.77 18 35.35l2.86 3.49L27 32.056z"/></svg>
